<?xml version="1.0" encoding="UTF-8"?>
<svg id="Layer_1" xmlns="http://www.w3.org/2000/svg" version="1.1" viewBox="0 0 1029.42 980.04">
  <!-- Generator: Adobe Illustrator 30.6.0, SVG Export Plug-In . SVG Version: 2.1.4 Build 109)  -->
  <defs>
    <style>
      .st0, .st1, .st2 {
        fill: #231f20;
      }

      .st1 {
        stroke: #243b53;
      }

      .st1, .st2 {
        stroke-miterlimit: 10;
      }

      .st2 {
        stroke: #b08d57;
      }
    </style>
  </defs>
  <path class="st0" d="M606.09,669.73l-.87-2.87c11.31-3.42,23.89-8.77,35.8-13.97,37.83-16.49,71.8-40.11,100.98-70.19,60.01-61.87,93.06-144.14,93.06-231.64s-33.05-169.77-93.06-231.64c-29.18-30.08-63.15-53.7-100.98-70.19-39.16-17.08-80.76-25.73-123.64-25.73s-84.48,8.66-123.64,25.73c-37.83,16.5-71.8,40.11-100.98,70.19-60.01,61.87-93.06,144.14-93.06,231.64s33.05,169.77,93.06,231.64c29.18,30.08,63.15,53.69,100.98,70.19,14.63,6.38,26.9,11.08,36.46,13.97l-.87,2.87c-9.67-2.92-22.05-7.66-36.79-14.09-38.19-16.65-72.48-40.49-101.93-70.85-60.56-62.43-93.91-145.44-93.91-233.73s33.35-171.29,93.91-233.73c29.45-30.36,63.75-54.2,101.93-70.85,39.54-17.24,81.54-25.98,124.84-25.98s85.3,8.74,124.84,25.98c38.19,16.65,72.48,40.49,101.93,70.85,60.56,62.43,93.91,145.44,93.91,233.73s-33.35,171.29-93.91,233.73c-29.45,30.36-63.75,54.2-101.93,70.85-11.99,5.23-24.66,10.62-36.13,14.09Z"/>
  <path class="st0" d="M613.47,688.02l-2.31-7.66c12.17-3.67,24.29-8.14,36.05-13.26,39.69-17.3,75.32-42.07,105.91-73.61,62.83-64.78,97.44-150.88,97.44-242.43s-34.6-177.65-97.44-242.43c-30.59-31.54-66.22-56.3-105.91-73.61-41.12-17.93-84.81-27.03-129.84-27.03s-88.71,9.09-129.84,27.03c-39.69,17.31-75.32,42.07-105.91,73.61-62.83,64.78-97.44,150.88-97.44,242.43s34.6,177.65,97.44,242.43c30.59,31.54,66.22,56.3,105.91,73.61,11.75,5.12,23.87,9.58,36.03,13.25l-2.31,7.66c-12.46-3.76-24.87-8.33-36.91-13.58-40.65-17.72-77.14-43.08-108.45-75.37-64.29-66.28-99.69-154.36-99.69-248s35.41-181.72,99.69-248c31.32-32.29,67.81-57.65,108.45-75.37C426.48,9.32,471.24,0,517.37,0s90.89,9.32,133.03,27.69c40.65,17.72,77.14,43.08,108.45,75.37,64.29,66.28,99.7,154.35,99.7,248s-35.41,181.72-99.7,248c-31.32,32.29-67.81,57.65-108.45,75.37-12.04,5.25-24.47,9.82-36.94,13.59Z"/>
  <g>
    <rect class="st0" x="631.54" y="741.53" width="301.09" height="3"/>
    <rect class="st0" x="102.06" y="741.53" width="301.09" height="3"/>
  </g>
  <g>
    <rect class="st0" x="5.67" y="952.05" width="153.1" height="3"/>
    <rect class="st0" x="875.92" y="952.05" width="153.1" height="3"/>
  </g>
  <g>
    <path class="st1" d="M442.85,734.56c-.06.26-.7.19-.7-.06.26-2.37.81-11.33.81-11.33,0,0,12.5.19,17.3.19,5.95,0,17.97-.19,17.97-.19,0,0,.37,9.21.43,11.75,0,.26-.64.26-.7,0-1.28-6.72-5.98-10.28-10.97-10.28-2.56,0-3.07.9-3.07,3.84v29.5c0,3.71.7,4.42,5.31,4.42.26,0,.26.77,0,.77-2.43,0-5.38-.13-8.96-.13-3.39,0-6.46.13-8.9.13-.26,0-.26-.77,0-.77,4.48,0,5.38-.7,5.38-4.42v-29.63c0-2.82-.51-3.71-2.94-3.71-5.25,0-8.83,3.65-10.94,9.92Z"/>
    <path class="st1" d="M541.41,763.16c-2.24,0-5.44-.13-8.51-.13-3.97,0-6.72.13-8.9.13-.26,0-.26-.77,0-.77,4.61,0,5.31-.7,5.31-4.42v-14.72h-20.67v14.72c0,3.71.77,4.42,5.31,4.42.19,0,.19.77,0,.77-2.5,0-5.25-.13-9.15-.13-3.07,0-6.08.13-8.32.13-.19,0-.19-.77,0-.77,4.29,0,5.06-.7,5.06-4.42v-29.63c0-3.65-.77-4.42-4.93-4.42-.26,0-.26-.77,0-.77,2.24,0,5.12.19,8.19.19,3.9,0,6.72-.19,9.15-.19.19,0,.19.77,0,.77-4.48,0-5.31.9-5.31,4.54v12.99h20.67v-12.99c0-3.65-.7-4.54-5.31-4.54-.26,0-.26-.77,0-.77,2.18,0,4.93.19,8.9.19,3.07,0,6.27-.19,8.51-.19.26,0,.26.77,0,.77-4.29,0-4.99.77-4.99,4.42v29.63c0,3.71.7,4.42,4.99,4.42.26,0,.26.77,0,.77Z"/>
    <path class="st1" d="M589.79,753.12c-.32,2.5-.64,6.21-.64,9.09,0,.7-.19.96-.96.96h-28.29c-.26,0-.26-.77,0-.77,3.9,0,4.54-.7,4.54-4.42v-29.63c0-3.65-.64-4.42-4.54-4.42-.26,0-.26-.77,0-.77h27.13c.51,0,.64.19.64.58l.13,8.51c0,.19-.64.32-.77.06-1.41-4.99-4.54-7.3-9.86-7.3h-1.92c-2.56,0-3.71,1.09-3.71,3.39v13.05h5.31c5.06,0,7.68-1.86,7.68-4.86,0-.26.7-.26.7,0,0,2.82-.06,4.03-.06,5.76,0,2.18.19,4.1.19,6.53,0,.19-.77.19-.77,0,0-3.46-2.69-5.63-7.81-5.63h-5.25v14.46c0,2.5.9,3.65,2.94,3.65h2.11c6.66,0,10.56-2.62,12.42-8.38.06-.26.77-.06.77.13Z"/>
  </g>
  <g>
    <path class="st0" d="M119.8,892.29c-6.61,0-14.05-.7-20.66-.7-7.6,0-12.23.7-19.01.7-.99,0-.99-2.09,0-2.09,9.09,0,10.25-2.96,4.79-14.27l-17.19-35.67h-29.42l-11.74,27.32c-5.95,13.92.99,22.62,13.39,22.62.99,0,.99,2.09,0,2.09-6.61,0-11.07-.7-19.5-.7s-12.4.7-19.84.7c-.83,0-.83-2.09,0-2.09,8.93,0,13.06-4.7,21.49-24.36l35.87-83c.17-.7,2.65-.87,2.98,0l41.32,85.61c7.77,16.53,12.07,21.75,17.52,21.75.99,0,.99,2.09,0,2.09ZM65.42,835.39l-13.22-27.49-11.74,27.49h24.96Z"/>
    <path class="st0" d="M201.77,865.42c-.58,6.26-1.34,16.16-1.34,23.83,0,2.22-.58,3.03-2.88,3.03h-72.15c-.58,0-.58-2.42,0-2.42,10.55,0,12.47-2.22,12.47-13.94v-61.81c0-11.51-1.92-13.94-12.47-13.94-.58,0-.58-2.42,0-2.42h68.7c1.34,0,1.92.61,1.92,1.62,0,6.67.38,17.17.38,22.22,0,.81-2.11.81-2.3,0-4.8-11.92-16.12-21.21-26.29-21.21h-1.34c-8.25,0-9.59,2.42-9.59,13.94v27.27c19.57-.4,27.44-2.22,29.36-2.22.96,0,1.34,2.22,1.34,4.44,0,2.42-.38,5.25-1.34,5.25-1.92,0-9.79-1.82-29.36-2.42v28.48c0,11.31,1.34,13.94,9.59,13.94h2.11c12.09,0,25.33-10.3,30.9-23.63.38-.81,2.3-.81,2.3,0Z"/>
    <path class="st0" d="M258.18,836.53c12.47,6.87,25.52,13.74,25.52,29.29,0,16.36-14.58,28.89-34.54,28.89-12.28,0-24.75-3.84-28.78-7.47-.96-.61-1.54-1.82-1.54-4.24l-.96-22.83c0-1.21,1.73-1.41,2.3-.4,6.91,12.73,17.27,30.3,31.85,30.3,6.91,0,13.43-4.24,13.43-14.54,0-13.74-11.71-20.6-23.22-27.27-11.51-6.46-23.22-13.33-23.22-27.27,0-16.36,15.93-25.65,33.39-25.65,8.83,0,18.61,2.42,23.6,4.65,2.49.81,2.88,2.22,2.88,4.04v19.19c0,.81-1.73,1.41-2.3.61-1.73-3.84-10.55-23.84-27.44-23.84-9.21,0-13.05,5.66-13.05,12.73,0,11.92,10.94,17.78,22.07,23.83Z"/>
    <path class="st0" d="M377.93,801.18c1.73.81,2.11,1.41,2.11,3.43l.96,20.81c0,.81-1.73,1.21-2.3.2-9.4-17.17-19-25.86-32.24-25.86-18.61,0-28.21,17.37-28.21,41.81s9.02,48.88,32.43,48.88c13.43,0,21.49-8.28,29.94-26.46.38-1.01,2.11-.61,2.11.2l-1.54,21.41c-.19,2.22-.38,2.63-2.69,3.64-10.94,4.04-21.88,5.45-30.7,5.45-39.34,0-52.39-29.09-52.39-50.09,0-28.08,23.03-49.29,53.35-49.29,8.83,0,21.68,2.02,29.17,5.86Z"/>
    <path class="st0" d="M463.71,800.17c-.77,0-.77-2.42,0-2.42,5.56,0,11.32.61,18.61.61,5.76,0,12.09-.61,17.08-.61.58,0,.58,2.42,0,2.42-10.36,0-14.58,6.67-14.58,21.01v33.94c0,25.45-14.39,39.79-36.27,39.79s-39.91-13.74-39.91-37.77v-43.03c0-11.51-1.73-13.94-12.28-13.94-.77,0-.77-2.42,0-2.42,5.95,0,13.62.61,21.49.61,8.44,0,16.12-.61,22.07-.61.58,0,.58,2.42,0,2.42-10.55,0-12.47,2.83-12.47,14.34v37.37c0,25.25,11.9,34.74,26.67,34.74,15.54,0,25.91-10.71,25.91-31.11v-34.34c0-14.34-4.99-21.01-16.31-21.01Z"/>
    <path class="st0" d="M536.63,875.12c0,10.3,2.11,12.93,13.05,12.93h2.11c14.58,0,27.44-10.71,33.2-27.67.19-.61,2.3-.4,2.3.2-.96,7.68-1.34,19.59-1.34,28.68,0,2.22-.77,3.03-3.07,3.03h-76.76c-.58,0-.58-2.42,0-2.42,9.59,0,11.32-2.22,11.32-13.94v-61.81c0-11.51-1.73-13.94-11.32-13.94-.58,0-.58-2.42,0-2.42,6.14,0,13.82.61,21.88.61s16.12-.61,21.88-.61c.77,0,.77,2.42,0,2.42-11.32,0-13.24,2.63-13.24,14.14v60.8Z"/>
    <path class="st0" d="M697.05,892.29c-7.68,0-16.5-.81-23.99-.81-6.33,0-13.62.81-19.38.81-1.15,0-1.15-2.42,0-2.42,10.55,0,9.02-4.85,4.8-14.54l-11.51-26.06h-22.26l-7.29,18.18c-6.91,16.77-3.26,22.42,9.98,22.42,1.15,0,1.15,2.42,0,2.42-6.33,0-9.59-.81-17.65-.81-9.02,0-13.05.81-20.72.81-1.15,0-1.15-2.42,0-2.42,11.51,0,15.54-3.64,23.79-24.24l28.78-70.9c.38-1.01,1.73-1.01,2.3,0l30.7,69.89c9.21,21.01,13.05,25.25,22.45,25.25,1.15,0,1.15,2.42,0,2.42ZM644.66,844.01l-9.4-21.21-8.44,21.21h17.85Z"/>
    <path class="st0" d="M751.17,889.86c.77,0,.77,2.42,0,2.42-7.68,0-16.31-.4-26.48-.4-8.06,0-15.93.4-22.07.4-.58,0-.58-2.42,0-2.42,10.17,0,12.47-2.22,12.47-13.94v-61.81c0-11.51-2.3-13.94-12.47-13.94-.58,0-.58-2.42,0-2.42,6.14,0,13.82.61,21.88.61,6.91,0,14.78-1.21,23.22-1.21,21.68,0,32.81,7.27,33.77,22.62,1.15,20.4-16.69,31.31-33.01,31.31-2.49,0-4.03-.2-4.41-.4-.77-.4-1.15-2.63.77-2.63.77,0,1.34.2,2.69.2,7.48,0,12.47-7.27,12.47-23.83,0-17.37-6.14-23.63-16.69-23.63-5.57,0-9.21,1.82-9.21,13.74v60.6c0,12.12,2.69,14.75,17.08,14.75Z"/>
    <path class="st0" d="M838.48,889.86c.58,0,.58,2.42,0,2.42-6.14,0-13.62-.4-22.26-.4-8.06,0-15.93.4-22.07.4-.58,0-.58-2.42,0-2.42,10.75,0,12.67-2.22,12.67-13.94v-61.81c0-11.51-1.92-13.94-12.67-13.94-.58,0-.58-2.42,0-2.42,6.14,0,14.01.61,22.07.61,8.63,0,16.31-.61,22.26-.61.58,0,.58,2.42,0,2.42-10.55,0-12.47,2.83-12.47,14.34v61.41c0,11.72,1.92,13.94,12.47,13.94Z"/>
    <path class="st0" d="M917.73,800.17c-.77,0-.77-2.42,0-2.42,5.57,0,11.32.61,18.61.61,5.76,0,12.09-.61,17.08-.61.58,0,.58,2.42,0,2.42-10.36,0-14.58,6.67-14.58,21.01v33.94c0,25.45-14.39,39.79-36.27,39.79s-39.91-13.74-39.91-37.77v-43.03c0-11.51-1.73-13.94-12.28-13.94-.77,0-.77-2.42,0-2.42,5.95,0,13.62.61,21.49.61,8.44,0,16.12-.61,22.07-.61.58,0,.58,2.42,0,2.42-10.55,0-12.47,2.83-12.47,14.34v37.37c0,25.25,11.9,34.74,26.67,34.74,15.54,0,25.91-10.71,25.91-31.11v-34.34c0-14.34-4.99-21.01-16.31-21.01Z"/>
    <path class="st0" d="M1003.9,836.53c12.47,6.87,25.52,13.74,25.52,29.29,0,16.36-14.58,28.89-34.54,28.89-12.28,0-24.75-3.84-28.79-7.47-.96-.61-1.54-1.82-1.54-4.24l-.96-22.83c0-1.21,1.73-1.41,2.3-.4,6.91,12.73,17.27,30.3,31.85,30.3,6.91,0,13.43-4.24,13.43-14.54,0-13.74-11.71-20.6-23.22-27.27-11.51-6.46-23.22-13.33-23.22-27.27,0-16.36,15.93-25.65,33.39-25.65,8.83,0,18.61,2.42,23.6,4.65,2.49.81,2.88,2.22,2.88,4.04v19.19c0,.81-1.73,1.41-2.3.61-1.73-3.84-10.55-23.84-27.44-23.84-9.21,0-13.05,5.66-13.05,12.73,0,11.92,10.94,17.78,22.07,23.83Z"/>
  </g>
  <g>
    <g>
      <path class="st2" d="M224.27,945.4c0,.2-.68.34-.82.07-1.5-5.3-4.83-7.75-10.47-7.75h-2.04c-2.72,0-3.94,1.16-3.94,3.6v14.69h4.9c5.3,0,8.09-2.04,8.09-5.24,0-.2.82-.2.82,0,0,3.06-.07,4.35-.07,6.19,0,2.24.14,4.35.14,6.87,0,.27-.82.27-.82,0,0-3.6-2.86-5.92-8.23-5.92h-4.83v14.55c0,4.08,1.09,4.96,7.27,4.96.2,0,.2.82,0,.82-3.06,0-6.46-.14-11.29-.14-3.26,0-6.46.14-8.84.14-.27,0-.27-.82,0-.82,4.56,0,5.3-.75,5.3-4.69v-31.48c0-3.88-.68-4.69-4.83-4.69-.27,0-.27-.82,0-.82h28.83c.54,0,.68.2.68.61l.14,9.04Z"/>
      <path class="st2" d="M253.58,957.03c0-14.75,12.92-22.03,23.93-22.03,13.4,0,21.49,10.61,21.49,21.55,0,12.65-10.95,22.5-23.87,22.5s-21.55-10.06-21.55-22.03ZM290.63,958.53c0-12.44-5.98-21.69-15.84-21.69-8.29,0-12.85,6.66-12.85,17.68,0,13.33,6.53,22.85,15.43,22.85,7.55,0,13.26-6.73,13.26-18.83Z"/>
      <path class="st2" d="M357.75,936.56c-.2,0-.2-.82,0-.82,2.24,0,4.56.2,7.41.2,2.45,0,4.83-.2,6.87-.2.2,0,.2.82,0,.82-3.6,0-5.64,3.06-5.64,7.89v18.9c0,9.66-6.8,15.84-16.93,15.84s-17.2-5.92-17.2-15.98v-21.96c0-3.88-.75-4.69-4.83-4.69-.27,0-.27-.82,0-.82,2.38,0,5.3.2,8.57.2s6.32-.2,8.64-.2c.27,0,.27.82,0,.82-4.08,0-4.83.95-4.83,4.83v19.45c0,11.15,4.76,15.84,12.24,15.84s12.03-4.69,12.03-13.26v-18.97c0-4.83-2.31-7.89-6.32-7.89Z"/>
      <path class="st2" d="M445.13,936.56c-3.6,0-5.85,3.06-5.85,7.89v34.81c0,.27-.61.34-.75.2l-31.89-36.31v26.45c0,4.83,2.11,7.82,5.64,7.82.2,0,.2.82,0,.82-1.97,0-4.08-.14-6.6-.14-2.72,0-5.37.14-7.55.14-.27,0-.27-.82,0-.82,3.94,0,6.46-2.99,6.46-7.82v-28.76c-3.06-3.33-4.96-4.28-7.14-4.28-.2,0-.2-.82,0-.82,1.77,0,3.81.14,5.44.14,3.26,0,6.05-.14,7.48-.14,1.16,0,1.22.95,3.4,3.54l23.53,27.13v-21.96c0-4.83-2.11-7.89-5.64-7.89-.2,0-.2-.82,0-.82,1.97,0,4.08.2,6.6.2s4.9-.2,6.87-.2c.2,0,.2.82,0,.82Z"/>
      <path class="st2" d="M479.61,978.11c-3.26,0-6.32.14-8.7.14-.2,0-.2-.82,0-.82,4.15,0,4.96-.75,4.96-4.69v-31.48c0-3.88-.75-4.69-4.83-4.69-.27,0-.27-.82,0-.82,2.38,0,5.3.2,8.57.2s7.68-.34,10.47-.34c14.07,0,23.39,8.98,23.39,20.67,0,13.6-10.27,22.23-22.44,22.23-2.92,0-7.82-.41-11.42-.41ZM505.1,957.78c0-11.56-5.58-20.67-14.35-20.67-5.3,0-7.34.61-7.34,4.28v30.6c0,3.4,1.22,4.96,6.94,4.96,8.57,0,14.75-6.73,14.75-19.17Z"/>
      <path class="st2" d="M587.65,978.24c-2.72,0-5.78-.27-8.5-.27-3.13,0-5.03.27-7.82.27-.41,0-.41-.82,0-.82,3.74,0,4.22-1.16,1.97-5.58l-7.07-13.94h-12.1l-4.83,10.67c-2.45,5.44.41,8.84,5.51,8.84.41,0,.41.82,0,.82-2.72,0-4.56-.27-8.02-.27s-5.1.27-8.16.27c-.34,0-.34-.82,0-.82,3.67,0,5.37-1.84,8.84-9.52l14.75-32.43c.07-.27,1.09-.34,1.22,0l17,33.45c3.2,6.46,4.96,8.5,7.21,8.5.41,0,.41.82,0,.82ZM565.28,956.01l-5.44-10.74-4.83,10.74h10.27Z"/>
      <path class="st2" d="M692.65,977.43c.27,0,.27.82,0,.82-2.38,0-5.24-.14-8.7-.14-3.26,0-6.32.14-8.7.14-.2,0-.2-.82,0-.82,4.15,0,4.96-.75,4.96-4.69v-31.48c0-3.88-.82-4.69-4.96-4.69-.2,0-.2-.82,0-.82,2.38,0,5.44.2,8.7.2,3.47,0,6.39-.2,8.7-.2.27,0,.27.82,0,.82-4.15,0-4.83.95-4.83,4.83v31.34c0,3.94.61,4.69,4.83,4.69Z"/>
      <path class="st2" d="M721.89,957.03c0-14.75,12.92-22.03,23.93-22.03,13.39,0,21.49,10.61,21.49,21.55,0,12.65-10.95,22.5-23.87,22.5s-21.55-10.06-21.55-22.03ZM758.94,958.53c0-12.44-5.98-21.69-15.84-21.69-8.3,0-12.85,6.66-12.85,17.68,0,13.33,6.53,22.85,15.43,22.85,7.55,0,13.26-6.73,13.26-18.83Z"/>
      <path class="st2" d="M842.72,936.56c-3.6,0-5.85,3.06-5.85,7.89v34.81c0,.27-.61.34-.75.2l-31.89-36.31v26.45c0,4.83,2.11,7.82,5.64,7.82.2,0,.2.82,0,.82-1.97,0-4.08-.14-6.6-.14-2.72,0-5.37.14-7.55.14-.27,0-.27-.82,0-.82,3.94,0,6.46-2.99,6.46-7.82v-28.76c-3.06-3.33-4.96-4.28-7.14-4.28-.2,0-.2-.82,0-.82,1.77,0,3.81.14,5.44.14,3.26,0,6.05-.14,7.48-.14,1.16,0,1.22.95,3.4,3.54l23.53,27.13v-21.96c0-4.83-2.11-7.89-5.64-7.89-.2,0-.2-.82,0-.82,1.97,0,4.08.2,6.6.2s4.9-.2,6.87-.2c.2,0,.2.82,0,.82Z"/>
    </g>
    <path class="st2" d="M609.29,947.85c-.07.27-.75.2-.75-.07.27-2.52.86-12.03.86-12.03,0,0,13.28.2,18.38.2,6.32,0,18.63-.2,18.63-.2,0,0,.39,9.12.46,12.03,0,.27-.68.27-.75,0-1.36-7.14-5.9-10.47-11.2-10.47-2.72,0-3.26.95-3.26,4.08v31.34c0,3.94.75,4.69,5.64,4.69.27,0,.27.82,0,.82-2.58,0-5.71-.14-9.52-.14-3.6,0-6.87.14-9.45.14-.27,0-.27-.82,0-.82,4.76,0,5.71-.75,5.71-4.69v-31.48c0-2.99-.54-3.94-3.13-3.94-5.58,0-9.38,3.88-11.63,10.54Z"/>
  </g>
  <g>
    <g>
      <ellipse class="st0" cx="502.74" cy="596.39" rx="10.87" ry="17.55" transform="translate(-49.47 45.49) rotate(-4.94)"/>
      <ellipse class="st0" cx="481.87" cy="619.1" rx="10.87" ry="17.55" transform="translate(-118.95 114.62) rotate(-12.09)"/>
      <ellipse class="st0" cx="531.95" cy="596.39" rx="17.55" ry="10.87" transform="translate(-108.0169 1075.0222) rotate(-85.0616)"/>
      <ellipse class="st0" cx="552.82" cy="619.1" rx="17.55" ry="10.87" transform="translate(-168.3101 1030.0406) rotate(-77.9139)"/>
    </g>
    <path class="st0" d="M538.17,670.59c-10.91,3.64-15.48-6.87-20.83-6.87-6.18,0-9.14,10.12-20.03,7.14-4.56-1.25-9.11-5.75-10.44-11.53-1.48-6.46.92-13.23,4.93-18.67l12.01-16.3c7.29-9.89,19.26-9.55,25.91-.03l13.91,17.79c3.72,5.33,5.67,11.63,4.04,17.98-1.33,5.15-5.42,9.14-9.5,10.5Z"/>
  </g>
  <g>
    <path class="st0" d="M509.37,536.62c-17.39,6.66-14.44,16.46-17.63,18.1-3.61,1.85-7.22-2.54-7.12-6.35.34-13.45,12.03-20.78,24.39-26.59l-.56-42.81,19.02,6.88-.43,26.69c8.77-4.67,15.72-12.3,12.89-20.78-.93-2.79-3.82-6.96-7.4-8.38l-22.96-9.05c-11-4.34-22.2-8.05-31.16-15.49-17.46-14.52-18.69-39.3-2.84-55.31,6.88-6.95,15.25-11.79,24.5-15.4l28.73-11.2c6.99-2.73,13.58-6.92,18.36-12.48,6.79-7.91,5.54-18.81-2-25.71-5.59-5.13-12.44-8.7-19.68-11.2l-15.53-5.38c-25.4-8.8-53.44-15.67-71.38-36.49-16.17-18.76-16.13-45.22.43-63.65,15.37-17.1,37.38-24.62,59.54-27.33l.32,28.85c-11.69,1.99-21.67,5.28-30.14,12.13-10.73,8.67-12.79,22.72-3.24,33.07,4.53,4.92,10.33,9.22,16.69,12.22,15.79,7.43,31.82,12.7,48.31,18.53,24.79,8.76,49.71,21.93,50.79,49.76,1.02,26.48-17.76,41-42.11,49.99l-29.3,10.82c-5.64,2.08-10.96,5.57-14.82,9.97-5.35,6.09-5.98,14.66-.92,20.81,3.96,4.82,9.14,7.9,14.86,10.22l27.76,11.28c7.41,3.01,14.7,7.9,19.08,14.72,7.53,11.74,4.44,26.92-4.91,37.05-6.49,7.04-14.75,11.03-24.05,15.46l-.82,32.71c-.12,4.89-3.86,8.09-8.12,8.07-4.62-.03-7.86-3.48-7.97-8.4l-.57-25.32Z"/>
    <path class="st0" d="M531.28,271.47l-.5,22.99-26.2-9.53-1.89-118.39c9.77,5.31,20.38,5.72,30.11-.12l-1.53,105.06Z"/>
    <path class="st0" d="M510.43,114.22c14.75-4.03,29.26,4.59,32.83,18.79,3.41,13.53-4.44,27.63-18.31,31.62-13.53,3.89-28.32-3.84-32.29-17.67s2.85-28.65,17.76-32.73Z"/>
    <polygon class="st0" points="529.53 371.41 506.11 380.85 505.21 325.41 530.25 334.77 529.53 371.41"/>
    <polygon class="st0" points="507.61 445.23 507.25 416.4 529.24 407.62 528.36 453.6 507.61 445.23"/>
    <path class="st0" d="M620.01,260.52l-2.16-1.57c-9.11-1.95-16.57-6.93-23.43-13.13,2.81.17,6.19-.22,7.48-1.87,4.51-5.76-7.36-19.64-14.53-28.41-5.06-6.19-12.13-11.07-19.43-14.4-5.48-2.5-10.81-1.75-16.63-2.84l-14.26-2.68-.56,29.54,9.53,2.68c3.32,6.6,8.56,11.21,14.96,14.29l17.54,8.47c3.91,1.89,8.41,1.1,13.13-.34l9.56,7.58c4.97,3.94,8.06,9.27,11.19,15.6,3.56-3.88.25-7.59-1.12-11.76l8.42,1.16c.25-.37.75-2.02.31-2.33ZM579.39,229.1c-1.28,1.6-3.62,1.85-5.23.56-3.84-3.08-3.04-7.19-3.04-7.19,0,0,4.03-1.53,7.68,1.4,1.61,1.29,1.87,3.63.59,5.23Z"/>
  </g>
  <g>
    <path class="st0" d="M769.14,464.44c25.57-9.4,37.46-33.48,40.76-59.92-25.88,11.51-42.43,29.97-46.86,57.83l-7.74,5.65c7.17-18.86,12.9-36.85,16.11-56.46,1.76-10.75,6.56-19.54,14.95-26.45,20.24-16.68,23.7-43.31,17.72-68.54-20.12,20.75-29.12,41.36-25.29,69.84l-5.78,8.29s.35-17.36.21-23.14c-.26-10.65-2.44-42.54-2.44-42.54-.47-5.85.94-13.88,3.94-18.76,7.35-11.97,11.31-24.22,9.55-38.44-1.55-12.54-5.47-24.64-12.43-35.54-12.7,25.21-14.32,48.79-1.99,73.67l-2.35,9.6c-5.17-20.49-13.73-38.45-25.07-56.11-2.98-28.07-20.33-46.14-46.84-54.85,5.22,27.13,18.3,44.38,41.34,56.75,12.02,14.8,19.9,35.79,25.58,54.88l-5.9-5.38c-7.1-25.26-27.27-39.32-53.81-42,11.25,24.15,25.21,39.38,51.67,45.52,7.25,4.35,11,14.4,12.12,22.74,2.48,18.42,2.67,35.81.89,54.82l-4.61-8.66c3.59-27.23-13.86-47.69-40.28-57.84,3.55,24.73,14.05,45.42,35.75,58.17,6.51,8.56,8.39,19.18,5.97,29.75-2.86,16.76-8.17,32.35-14.54,47.8l-2.14-9.66c7.61-20.34,1.71-42.49-12.84-58.48l-10.37-9.72c-3.88,30.83.36,43.63,17.57,66.98,4.67,6.33,4.14,17.1.88,24.09-8.53,18.31-19.51,33.78-32.29,49.75l.71-9.72c16.15-22.61,13.5-50.12-.85-73.65-10.29,17.72-14.23,36.82-10.08,56.09l5.77,16.41c2.21,6.29-.06,15.18-4.3,20.61-12.06,15.45-25.84,28.15-40.74,40.87l1.27-8.11c20.65-20.42,23.2-47.44,15.66-76.57-9.88,9.99-16.22,21.96-19.9,35.11-3.52,12.59-2.35,24.42-.09,37.34,1.15,6.59-2.08,16.14-7.5,20.48-18.77,15.01-37.46,26.75-58.08,39.24,3.55-4.31,1.83-6.42,5.3-8.52,26.42-15.92,36.98-41.61,38.71-71.98-26.29,15.37-43.08,35.76-43.85,65.91-.14,5.51-2.35,13.32-5.36,17.4-16.8,9.58-29.34,19.42-36.35,37.98.41,1.02,3.6,2.29,4.66,1.76s2.36-2.11,3.15-3.56c8-14.65,28.03-33.04,42.35-25.58,26.01,13.53,45.85,6.43,69.24-9.55-21.76-10.98-48.37-13.49-67.19,3.23l12.03-.23,21.81.08c-14.64,2.64-28.69,1.76-43.56.58l65.28-43.39c4.79-3.18,12.77-5.21,18.17-4.63,14.35,1.55,27.21.02,39.53-7.25,10.38-6.13,19.37-13.52,27.83-23.2l-19.92-1.29c-19.95.8-37.51,10.77-48.3,27.07l-9.05,1.44,20.04-19.18,20.91-21.84c4.35-4.54,12.26-9.14,18.64-10.84,29-1.15,47.85-17.21,61.79-43.38-29.24,1.21-49.19,13.52-62.54,39.41l-8.72,3.55c11.71-15.2,21.63-30.27,30.71-46.91,4.07-7.45,13.56-15.99,21.38-18.86ZM792.26,431.53s-2.31,5.68-8.31,12.67c-8.3,9.65-15.88,14.89-15.88,14.89l24.2-27.56ZM793.33,344.46s.35,6.12-2.09,15.01c-3.37,12.27-7.98,20.26-7.98,20.26l10.08-35.26ZM773.17,268.84s1.69,5.89,1.28,15.1c-.58,12.71-3.31,21.52-3.31,21.52l2.03-36.62ZM734.85,257.06l-.02.66-.02-.66v-.36c-2.88-3.18-9.5-10.53-11.91-13.58-2.66-3.36-9.85-14.07-9.85-14.07,2.1,1.28,5.62,5.51,10.9,11.76,3.7,4.38,8.55,11.69,10.87,15.28v-.36s.02.39.02.39c.83,1.29,1.34,2.1,1.34,2.1,0,0-.51-.56-1.34-1.47v.32ZM736.86,260.07l-.02.66-.02-.66v-.68l.02-.66.02.66v.68ZM723.16,288.2c2.3.85,6.91,3.64,13.29,8.76,6.09,4.9,14.99,15.44,14.99,15.44l-28.28-24.2ZM746.91,361.96v.3s-.02-.33-.02-.33l-1.99-3.26-.02.58-.02-.63-4.58-7.53c1.92,1.53,5.44,5.6,9.9,12.46,4.27,6.55,9.45,19.34,9.45,19.34l-12.73-20.93ZM712.84,488.42c.25,7.81-1.97,21.44-1.97,21.44l-.03-37.22c.85,2.3,1.74,7.61,2,15.79ZM670.06,530.05c.34,2.43.07,7.81-1.43,15.85-1.43,7.69-6.51,20.52-6.51,20.52l7.93-36.37ZM602.93,599.64s2.62-5.22,6.12-10.82c2.44-3.92,8.3-10.84,8.3-10.84l-21.43,37.65c1.93-5.07,4.27-11.17,7.01-15.98ZM713.88,567.53s-4.71,3.93-13.3,7.27c-11.86,4.61-21.02,5.67-21.02,5.67l34.32-12.94ZM764.16,505.25s-3.99,4.66-11.9,9.38c-10.92,6.52-19.78,9.1-19.78,9.1l31.68-18.48ZM735,411.94c1.47,1.97,3.82,6.81,6.39,14.57,2.46,7.42,4.2,21.11,4.2,21.11l-10.59-35.69Z"/>
    <path class="st0" d="M286.93,483.3c9.08,16.63,19,31.71,30.71,46.91l-8.72-3.55c-13.35-25.89-33.3-38.2-62.54-39.41,13.93,26.18,32.79,42.24,61.79,43.38,6.38,1.7,14.3,6.3,18.64,10.84l20.91,21.84,20.04,19.18-9.05-1.44c-10.79-16.29-28.34-26.27-48.3-27.07l-19.92,1.29c8.46,9.68,17.44,17.07,27.83,23.2,12.32,7.27,25.17,8.8,39.53,7.25,5.4-.58,13.39,1.45,18.17,4.63l65.28,43.39c-14.87,1.18-28.92,2.07-43.56-.58l21.81-.08,12.03.23c-18.82-16.72-45.43-14.22-67.19-3.23,23.4,15.98,43.23,23.08,69.24,9.55,14.33-7.45,34.35,10.93,42.35,25.58.79,1.45,2.08,3.04,3.15,3.56s4.26-.74,4.66-1.76c-7.02-18.57-19.55-28.4-36.35-37.98-3.01-4.08-5.22-11.89-5.36-17.4-.77-30.16-17.55-50.54-43.85-65.91,1.73,30.37,12.29,56.06,38.71,71.98,3.48,2.1,1.76,4.21,5.3,8.52-20.62-12.49-39.31-24.23-58.08-39.24-5.42-4.34-8.66-13.89-7.5-20.48,2.26-12.91,3.43-24.75-.09-37.34-3.67-13.14-10.02-25.11-19.9-35.11-7.54,29.13-4.99,56.15,15.66,76.57l1.27,8.11c-14.9-12.72-28.68-25.42-40.74-40.87-4.24-5.43-6.51-14.32-4.3-20.61l5.77-16.41c4.15-19.27.21-38.37-10.08-56.09-14.35,23.53-17.01,51.04-.85,73.65l.71,9.72c-12.79-15.97-23.76-31.44-32.29-49.75-3.25-6.99-3.78-17.75.88-24.09,17.21-23.35,21.45-36.15,17.57-66.98l-10.37,9.72c-14.55,15.99-20.45,38.14-12.84,58.48l-2.14,9.66c-6.37-15.45-11.68-31.04-14.54-47.8-2.41-10.57-.54-21.19,5.97-29.75,21.7-12.74,32.2-33.44,35.75-58.17-26.41,10.14-43.87,30.61-40.28,57.84l-4.61,8.66c-1.78-19.01-1.59-36.41.89-54.82,1.12-8.34,4.87-18.39,12.12-22.74,26.46-6.14,40.42-21.36,51.67-45.52-26.54,2.68-46.71,16.74-53.81,42l-5.9,5.38c5.68-19.1,13.57-40.08,25.58-54.88,23.05-12.37,36.12-29.62,41.34-56.75-26.51,8.71-43.85,26.78-46.84,54.85-11.34,17.66-19.9,35.62-25.07,56.11l-2.35-9.6c12.34-24.88,10.71-48.47-1.99-73.67-6.97,10.89-10.88,23-12.43,35.54-1.76,14.22,2.2,26.48,9.55,38.44,2.99,4.88,4.41,12.91,3.94,18.76,0,0-2.18,31.89-2.44,42.54-.14,5.78.21,23.14.21,23.14l-5.78-8.29c3.83-28.48-5.17-49.09-25.29-69.84-5.97,25.23-2.51,51.86,17.72,68.54,8.39,6.91,13.19,15.71,14.95,26.45,3.21,19.61,8.94,37.61,16.11,56.46l-7.74-5.65c-4.42-27.86-20.98-46.33-46.86-57.83,3.3,26.44,15.19,50.52,40.76,59.92,7.83,2.88,17.32,11.41,21.38,18.86ZM266.62,459.1s-7.59-5.25-15.88-14.89c-6.01-6.99-8.31-12.67-8.31-12.67l24.2,27.56ZM251.43,379.72s-4.61-7.99-7.98-20.26c-2.44-8.89-2.09-15.01-2.09-15.01l10.08,35.26ZM263.55,305.46s-2.73-8.81-3.31-21.52c-.42-9.21,1.28-15.1,1.28-15.1l2.03,36.62ZM299.83,256.74c-.82.91-1.34,1.47-1.34,1.47,0,0,.51-.81,1.34-2.1v-.39s.02.36.02.36c2.33-3.59,7.17-10.9,10.87-15.28,5.28-6.25,8.8-10.48,10.9-11.76,0,0-7.19,10.72-9.85,14.07-2.41,3.04-9.03,10.4-11.91,13.58v.36l-.02.66-.02-.66v-.32ZM297.82,259.39l.02-.66.02.66v.68s-.02.66-.02.66l-.02-.66v-.68ZM283.25,312.4s8.9-10.55,14.99-15.44c6.38-5.12,10.98-7.91,13.29-8.76l-28.28,24.2ZM275.05,382.89s5.18-12.79,9.45-19.34c4.47-6.85,7.98-10.93,9.9-12.46l-4.58,7.53-.02.63-.02-.58-1.99,3.26v.33s-.02-.3-.02-.3l-12.73,20.93ZM323.84,472.64l-.03,37.22s-2.22-13.62-1.97-21.44c.26-8.18,1.15-13.49,2-15.79ZM372.55,566.42s-5.08-12.83-6.51-20.52c-1.49-8.04-1.76-13.42-1.43-15.85l7.93,36.37ZM438.77,615.63l-21.43-37.65s5.86,6.92,8.3,10.84c3.5,5.6,6.12,10.82,6.12,10.82,2.74,4.81,5.09,10.91,7.01,15.98ZM355.13,580.47s-9.16-1.06-21.02-5.67c-8.59-3.34-13.3-7.27-13.3-7.27l34.32,12.94ZM302.2,523.73s-8.86-2.57-19.78-9.1c-7.91-4.73-11.9-9.38-11.9-9.38l31.68,18.48ZM289.1,447.62s1.74-13.69,4.2-21.11c2.57-7.77,4.93-12.61,6.39-14.57l-10.59,35.69Z"/>
  </g>
  <g>
    <path class="st0" d="M315.01,182.57c-.14-.01-.26.04-.34.14h0c-1.05,1.47-1.67,2.07-2.27,2.22-.57.14-1.2-.11-2.39-.97l-17.99-12.89c-.93-.67-1.37-1.11-1.5-1.54-.13-.43.03-.93.56-1.66,2.22-3.1,5.81-3.72,10.1-1.73.25.1.5-.08.62-.31.14-.25.06-.46-.08-.56-1.36-.97-7.06-5.53-7.06-5.53,0,0-3.63,5.49-4.3,6.47-.9,1.33-1.92,2.83-3.41,4.91-2.11,2.95-8.06,10.38-8.06,10.38,0,0,5.65,4.68,6.99,5.88.17.13.42.07.6-.13.19-.21.23-.47.09-.62-2.98-4.13-3.4-7.73-1.27-10.71.5-.69.89-.99,1.33-1,.45.02.98.25,1.87.88l18.06,12.94c1.15.82,1.61,1.38,1.65,2,.04.63-.34,1.43-1.36,2.86-.08.12-.08.27,0,.41.06.1.15.18.21.22.13.09.26.14.38.14s.22-.05.29-.15c.49-.68,1.02-1.46,1.6-2.3.67-.99,1.41-2.06,2.21-3.18.86-1.2,1.66-2.27,2.37-3.22.59-.79,1.14-1.52,1.62-2.19.07-.1.08-.24.03-.37-.09-.2-.35-.38-.56-.4Z"/>
    <path class="st0" d="M335.9,157.9c-1.68-1.5-3.6-3.57-4.74-4.88l-.02-.02c-.19-.17-.49-.05-.69.12-.24.21-.23.44-.15.56,2.25,3.83,1.79,7.18-1.49,10.84l-1.06,1.18c-.91,1.02-1.86.97-3.16-.2l-7.9-7.06,2.46-2.75c2.37-2.66,4.81-3.22,6.7-1.53.04.04.19.15.41.02.09-.05.17-.13.21-.18.27-.3.22-.53.09-.64-.7-.63-1.36-1.16-1.99-1.67-.6-.49-1.17-.96-1.76-1.48-.42-.38-.79-.71-1.19-1.09-.52-.48-1.11-1.03-2-1.82-.1-.09-.25-.12-.4-.06-.11.04-.19.12-.24.18-.05.06-.12.15-.15.26-.04.15,0,.29.1.39,1.63,1.46,1.23,3.72-1.14,6.37l-2.49,2.78-7.12-6.36c-1.2-1.07-1.21-2.09-.02-3.42l.96-1.07c2.57-2.88,5.34-3.45,8.75-1.79.25.07.49-.12.61-.34.12-.22.11-.42-.03-.55l-4.82-4.18c-.34-.31-.67-.28-1,.09l-13.56,15.18c-.1.11-.11.26-.05.41.05.11.13.19.19.24.06.05.15.12.26.16.15.05.31.02.4-.09.99-1.11,1.6-1.56,2.16-1.59.55-.04,1.15.31,2.22,1.27l16.57,14.81c2.01,1.79,2.03,2.33.18,4.4-.1.11-.11.26-.05.41.05.11.13.19.19.24.06.05.15.12.26.16.05.02.09.02.14.02.1,0,.2-.04.26-.11l14.14-15.82c.16-.18.35-.43.33-.73-.02-.27-.22-.48-.4-.64Z"/>
    <path class="st0" d="M363.28,133.09c-.16-.05-.32-.02-.44.09-1.1.98-3,.69-7.53-1.15l-24.63-9.68c-.22-.11-.5-.01-.76.26-.23.24-.31.48-.23.62l7.42,24.04c1.75,5.6,1.72,7.26-.13,8.91-.11.1-.15.24-.12.39.04.21.23.42.43.49.05.02.1.02.14.02.1,0,.19-.03.26-.1.78-.7,1.34-1.25,1.94-1.84.63-.62,1.28-1.27,2.24-2.12.97-.86,1.72-1.45,2.44-2.03.64-.51,1.24-.98,1.92-1.59.12-.11.17-.26.14-.43-.04-.21-.21-.4-.41-.46-.16-.05-.32-.02-.44.09-1.31,1.17-2.7,1.62-3.91,1.29-1.23-.34-2.18-1.47-2.74-3.26l-2.41-7.74,6.15-5.46,10.12,3.99c1.73.68,2.55,1.22,2.64,1.74.07.41-.28.94-1.14,1.71-.12.11-.17.26-.14.43.04.21.21.4.41.46.16.05.32.02.44-.09.72-.64,1.29-1.2,1.89-1.8.62-.62,1.27-1.26,2.11-2.01.71-.63,1.52-1.28,2.3-1.91.78-.63,1.59-1.29,2.32-1.93.12-.11.17-.26.14-.43-.04-.21-.21-.4-.41-.46ZM340.69,132.63l-4.83,4.29-2.22-7.07,7.04,2.78Z"/>
    <path class="st0" d="M383.57,110.37l-.02-.03c-.12-.17-.34-.22-.58-.13-.25.1-.4.31-.37.52.87,6.02-.15,9.3-3.65,11.69-2.77,1.9-5.89,2.41-9.04,1.5-3.22-.94-6.22-3.32-8.66-6.88-2.4-3.51-3.53-7.09-3.26-10.36.26-3.16,1.78-5.78,4.41-7.58,3.71-2.54,8.01-2.15,12.46,1.16.23.1.51.03.69-.18.15-.18.17-.39.05-.57l-4.28-5.15c-.46-.58-.77-.79-1.46-.59-1.94.39-5.1,1.9-7.68,3.66-4.19,2.87-7.13,6.8-8.28,11.07-1.17,4.35-.41,8.79,2.14,12.52,2.95,4.31,7.38,6.53,12.28,6.53,3.71,0,7.69-1.27,11.48-3.87,2.46-1.69,4.72-3.9,6.54-6.42.41-.63.37-.83-.02-1.57l-2.77-5.32Z"/>
    <path class="st0" d="M420.28,99.5h0c-1.48.74-2.28.97-2.85.82-.55-.15-1-.69-1.65-1.98l-9.98-19.86c-1.13-2.25-1.11-2.87,1.75-4.3.21-.11.26-.37.11-.66-.14-.29-.38-.41-.59-.3-.69.35-1.52.8-2.39,1.27-1,.55-2.14,1.17-3.25,1.72-1.53.77-2.78,1.35-3.89,1.86-.81.37-1.51.7-2.14,1.01-.13.06-.2.2-.19.36,0,.12.05.22.08.29.15.29.38.41.59.3,3.03-1.52,3.61-1.14,4.75,1.15l4.26,8.48-13.41,6.73-4.26-8.48c-1.13-2.25-1.02-3.02,1.92-4.5.1-.05.17-.15.17-.28.01-.21-.15-.54-.33-.66-.1-.07-.22-.08-.32-.03-.72.36-1.47.77-2.33,1.24-1.07.58-2.28,1.24-3.74,1.97-1.1.56-2.22,1.07-3.2,1.52-.85.39-1.66.76-2.36,1.11-.11.06-.19.17-.19.31-.01.22.13.5.31.62.12.08.25.09.37.03,2.65-1.33,3.27-1.16,4.45,1.19l9.98,19.86c1.19,2.38.96,2.94-1.79,4.33-.1.05-.17.15-.17.28-.01.21.15.54.33.66.06.04.12.06.19.06.05,0,.09-.01.14-.03.69-.35,1.49-.77,2.35-1.23,1-.53,2.08-1.1,3.19-1.66,1.45-.73,2.68-1.31,3.77-1.83.88-.42,1.66-.79,2.41-1.17.15-.08.26-.29.08-.64-.18-.36-.41-.4-.56-.32-2.9,1.46-3.52,1.32-4.71-1.06l-4.84-9.64,13.41-6.73,4.84,9.64c1.15,2.29,1.11,2.87-1.96,4.41-.21.11-.25.37-.11.66s.38.41.59.3c.62-.31,1.3-.67,2.09-1.09,1.08-.57,2.3-1.22,3.83-1.99,1.11-.56,2.26-1.1,3.31-1.6.9-.43,1.74-.83,2.43-1.17.21-.11.25-.37.11-.66-.14-.29-.39-.41-.59-.3Z"/>
    <path class="st0" d="M433.63,74.56c-.91-.45-1.93-.53-2.87-.21-1.96.66-3.06,2.86-2.41,4.79.33.96,1.01,1.74,1.93,2.17.52.25,1.08.37,1.64.37.42,0,.84-.07,1.25-.21.95-.32,1.72-.99,2.16-1.88.45-.9.52-1.93.19-2.89-.32-.93-.99-1.69-1.9-2.15Z"/>
    <path class="st0" d="M489.18,81.5c-2.99.54-3.51.23-3.98-2.39l-3.97-21.87c-.26-1.41-.22-2.1.13-2.56.37-.48,1.14-.78,2.76-1.08.23-.04.35-.28.29-.6-.06-.31-.25-.5-.48-.46-.77.14-1.68.34-2.65.55-1.12.24-2.38.51-3.6.74-1.68.31-3.05.51-4.26.68-.88.13-1.65.24-2.33.37-.23.04-.35.28-.29.6.06.32.25.5.48.46,1.71-.31,2.63-.3,3.18.05.59.36.84,1.19,1.06,2.39l1.7,9.34-14.76,2.68-1.7-9.34c-.25-1.39-.2-2.13.18-2.62.41-.52,1.26-.85,2.93-1.16.17-.03.33-.2.26-.59-.07-.39-.28-.5-.45-.47-.79.14-1.62.32-2.58.53-1.19.26-2.54.55-4.15.84-1.22.22-2.43.4-3.5.55-.93.14-1.81.26-2.57.4-.13.02-.23.11-.27.24-.07.2-.02.52.12.68.09.11.22.16.34.13,2.92-.53,3.47-.19,3.94,2.4l3.97,21.87c.48,2.62.09,3.1-2.94,3.65-.17.03-.33.2-.26.59.06.35.24.47.39.47.02,0,.04,0,.06,0,.76-.14,1.64-.32,2.59-.51,1.11-.23,2.31-.47,3.53-.7,1.6-.29,2.95-.51,4.14-.69.96-.15,1.81-.29,2.63-.44.17-.03.33-.2.26-.59-.01-.07-.04-.17-.09-.27-.12-.22-.31-.21-.36-.2-1.74.31-2.62.32-3.16.01-.52-.3-.81-.93-1.06-2.36l-1.93-10.62,14.76-2.68,1.93,10.62c.46,2.52.25,3.07-3.13,3.68-.13.02-.23.11-.27.24-.07.2-.02.52.12.68.09.11.22.16.34.13.69-.12,1.44-.28,2.32-.46,1.2-.24,2.55-.52,4.23-.83,1.22-.22,2.47-.42,3.62-.6.99-.16,1.91-.3,2.67-.44.13-.02.23-.11.27-.24.07-.2.02-.52-.12-.68-.09-.11-.22-.15-.34-.13Z"/>
    <path class="st0" d="M515.62,73.14c-.31-.03-.47.13-.5.29-1.16,4.29-3.86,6.3-8.77,6.54l-1.58.08c-.68.03-1.18-.13-1.51-.5-.34-.38-.52-1-.57-1.89l-.51-10.59,3.68-.18c3.56-.17,5.67,1.18,5.79,3.7,0,.11.07.21.18.27.19.1.55.08.73-.04.11-.07.16-.17.16-.29-.05-.94-.12-1.78-.2-2.59-.07-.77-.14-1.5-.18-2.29-.03-.57-.04-1.06-.06-1.61-.02-.71-.04-1.52-.1-2.71-.01-.23-.22-.39-.53-.37-.3.01-.51.19-.49.42.11,2.19-1.79,3.49-5.34,3.66l-3.73.18-.46-9.53c-.04-.8.13-1.38.51-1.76.39-.39,1.01-.61,1.91-.65l1.44-.07c3.86-.18,6.21,1.38,7.42,4.98.13.23.43.26.67.19.24-.07.38-.22.37-.4l-.4-6.37c0-.14-.03-.35-.19-.49-.17-.15-.41-.16-.57-.15l-20.33.98c-.24.01-.38.23-.37.56.02.32.19.54.42.52,2.74-.13,3.17.25,3.3,2.91l1.07,22.2c.07,1.45-.04,2.14-.41,2.54-.37.41-1.1.59-2.6.67-.14,0-.27.1-.32.25-.04.11-.05.22-.04.3.02.31.18.52.4.52,0,0,.01,0,.02,0l21.19-1.02c.69-.03.95-.33.92-1.02-.11-2.25.01-5.07.15-6.83-.01-.25-.31-.39-.57-.4Z"/>
    <path class="st0" d="M553.93,82.57c-1.46-.11-2.57-1.68-4.4-6.22l-10.14-24.45c-.07-.23-.34-.37-.71-.37-.33,0-.56.11-.61.26l-12.15,22.02c-2.82,5.14-4.04,6.28-6.5,6.09-.14,0-.28.05-.36.18-.12.18-.14.46-.05.65.07.14.19.23.33.24,1.04.08,1.84.1,2.67.12.89.02,1.8.04,3.08.14,1.29.1,2.24.23,3.16.35.81.11,1.57.21,2.47.28.15.01.29-.05.38-.17.07-.09.11-.2.12-.33.02-.31-.16-.55-.42-.57-1.75-.14-3.04-.82-3.64-1.92-.61-1.12-.46-2.59.44-4.23l3.9-7.11,8.2.63,4.16,10.05c.71,1.72.89,2.68.58,3.11-.25.34-.87.45-2.02.36-.15,0-.29.05-.38.17-.07.09-.11.2-.12.33,0,.12.01.25.07.34.08.13.2.22.35.23.96.07,1.76.09,2.61.11.88.02,1.78.04,2.91.12.95.07,1.98.2,2.97.33,1,.12,2.03.25,3,.33.01,0,.02,0,.04,0,.14,0,.26-.06.35-.17.07-.09.11-.2.12-.33.02-.31-.16-.55-.42-.57ZM538.94,66.25l-6.43-.5,3.55-6.5,2.89,7Z"/>
    <path class="st0" d="M581.21,79.94c-.25-.09-.48-.01-.57.17-2.02,4.05-6.39,6.04-11.14,5.06l-1.6-.33c-1.19-.24-1.71-.47-1.95-.82-.23-.36-.23-.93.01-2.11l4.44-21.53c.29-1.42.57-2.06,1.03-2.37.48-.33,1.24-.34,2.69-.04.12.03.25-.02.35-.12.14-.16.21-.47.14-.68-.04-.13-.14-.22-.27-.25-.73-.15-1.56-.29-2.44-.44-1.07-.18-2.28-.38-3.56-.65-1.24-.25-2.46-.55-3.54-.81-.88-.21-1.72-.42-2.4-.56-.05-.01-.24-.03-.36.19-.05.09-.08.19-.09.26-.01.07-.03.18-.02.28.03.25.21.31.26.32,2.7.56,3.05,1.07,2.52,3.65l-4.49,21.77c-.29,1.42-.58,2.06-1.05,2.36-.48.3-1.24.3-2.71,0-.11-.02-.22.02-.31.11-.14.16-.22.52-.15.72.04.12.13.2.24.22l22.19,4.57c.12.02.22.04.32.04.45,0,.72-.26.83-.79.59-2.86,1.69-6.58,2.02-7.67.05-.22-.12-.44-.4-.54Z"/>
    <path class="st0" d="M605.14,74.75c-.95-.33-1.99-.26-2.91.18-.92.44-1.6,1.2-1.92,2.13-.67,1.96.4,4.11,2.39,4.8.4.14.81.2,1.22.2,1.56,0,3.02-.98,3.56-2.54.66-1.93-.41-4.11-2.33-4.78Z"/>
    <path class="st0" d="M637.41,80.4c.94-.27,2-.13,3.06.39,3.81,1.87,3.41,7,3.21,9.46-.03.42-.06.78-.06,1.03h0c0,.21.16.38.4.44.21.05.5,0,.61-.22l3.11-6.33c.21-.42.25-.83-.26-1.45-1.03-1.2-3.2-2.78-5.17-3.74-4.46-2.2-10.37-2.32-12.79,2.6-1.92,3.9.13,7.38,2.12,10.74l.18.3c1.98,3.39,4.03,6.89,2.13,10.76-.69,1.41-1.59,2.25-2.67,2.52-.88.21-1.88.05-2.97-.49-3.86-1.9-3.84-7.42-3.83-11.86v-.28c.02-.29-.22-.51-.46-.55-.24-.05-.47.08-.53.28l-3.24,6.91c-.3.6-.17.91.02,1.24.6,1.43,3.6,3.98,6.17,5.24,1.91.94,3.84,1.39,5.63,1.39,3.39,0,6.3-1.61,7.77-4.6,2.11-4.29-.31-8.29-2.45-11.82-2.04-3.38-3.96-6.57-2.41-9.72.57-1.17,1.42-1.94,2.43-2.23Z"/>
    <path class="st0" d="M663.98,116.12c.1.19.41.39.62.4.14.01.23-.05.29-.14.51-.79.93-1.52,1.34-2.22.39-.67.76-1.31,1.19-1.97.31-.48.58-.89.89-1.35.39-.59.84-1.26,1.49-2.26.07-.11.07-.25,0-.37-.09-.18-.34-.34-.54-.35-.17-.01-.26.05-.33.16-1.19,1.84-3.48,1.8-6.47-.12l-3.14-2.02,5.16-8.03c.43-.67.9-1.05,1.44-1.14.55-.1,1.18.09,1.94.58l1.21.78c3.25,2.09,4.25,4.73,3.15,8.36-.03.26.2.46.44.55.24.08.43.04.53-.12l3.37-5.42c.08-.12.17-.3.13-.51-.05-.22-.24-.37-.37-.46l-17.12-11c-.11-.07-.24-.07-.37,0-.19.1-.36.37-.38.58,0,.14.05.26.16.33,2.31,1.48,2.44,2.04,1,4.28l-12.01,18.7c-1.44,2.24-2,2.36-4.31.87-.11-.07-.24-.07-.37,0-.19.1-.36.37-.37.58,0,.14.05.26.16.33l17.85,11.47c.17.11.38.23.61.23.05,0,.1,0,.15-.02.26-.07.44-.29.57-.5,1.22-1.9,2.96-4.12,4.09-5.48.14-.21-.02-.49-.23-.66-.25-.21-.47-.16-.57-.06-3.43,2.82-6.8,2.9-10.94.24l-1.33-.86c-1.15-.74-1.25-1.68-.3-3.15l5.73-8.92,3.1,1.99c3,1.93,3.93,4.25,2.57,6.37-.06.1-.06.22,0,.33Z"/>
    <path class="st0" d="M696.75,115.92c-.83-.7-1.78-1.4-2.69-2.07-.88-.65-1.71-1.26-2.42-1.85-.95-.8-1.84-1.6-2.62-2.31-.68-.61-1.32-1.19-1.92-1.69-.13-.11-.37-.12-.62.18-.25.3-.2.53-.07.64,1.14.96,1.6,1.55,1.65,2.12.05.55-.28,1.16-1.21,2.26l-14.31,17c-.93,1.11-1.49,1.53-2.05,1.57-.58.03-1.23-.33-2.38-1.29-.18-.15-.44-.09-.65.16-.21.25-.23.51-.05.67.59.5,1.27,1.04,2,1.63.85.68,1.78,1.42,2.72,2.22,1.02.86,1.94,1.67,2.75,2.39.68.6,1.3,1.15,1.89,1.64.09.07.21.09.32.05.2-.07.44-.35.47-.56.02-.12-.02-.24-.1-.31-1.17-.99-1.63-1.56-1.68-2.11-.05-.61.41-1.29,1.23-2.26l7-8.32c.53.49,1.17,1.03,1.81,1.56.25.21.48.41.76.6-1.39,7.82-2.71,17.33-1.22,18.58l6.54,5.5s.1.07.2.07c.06,0,.13-.02.21-.07.09-.05.16-.13.21-.19.25-.3.2-.53.07-.64-2.75-2.32-3.05-7.54-1.19-21.45,3.41.51,6.65-.53,8.51-2.73,2.6-3.09,1.43-7.09-3.2-10.98ZM694.17,124.42c-2.51,2.98-4.21,3.98-7.07,1.56-.55-.46-1.29-1.14-1.84-1.75l6.04-7.18c1.36-1.62,2.39-1.74,3.93-.44,1.59,1.34,2.71,3.32-1.06,7.81Z"/>
    <path class="st0" d="M734.64,154.89c.09.09.21.13.35.1.21-.05.45-.26.51-.47.04-.13.01-.26-.07-.36-.53-.57-.96-.98-1.41-1.42-.47-.45-.95-.92-1.57-1.58-1.02-1.1-1.74-1.94-2.38-2.69-.52-.6-1-1.17-1.56-1.78-.09-.09-.21-.13-.35-.1-.21.05-.44.26-.51.47-.04.13-.01.27.07.36.84.9,1.18,1.86.98,2.75-.24,1.11-1.28,2.1-2.92,2.78l-15.77,6.4,7.12-17.59c.49-1.26,1.18-2,1.98-2.15.76-.15,1.6.26,2.44,1.16.16.17.43.14.66-.08.24-.22.29-.48.13-.66-.37-.39-.79-.82-1.34-1.38-1.05-1.07-2.48-2.52-4.84-5.07-.96-1.04-1.32-1.5-1.6-1.86-.2-.25-.37-.47-.68-.81-.09-.09-.21-.13-.35-.1-.21.05-.44.26-.51.47-.04.13-.01.27.07.36.86.93.84,2.3-.07,4.73l-10.72,26.62c-.14.3.14.65.27.79.11.12.36.35.62.35.05,0,.1,0,.15-.03l23.43-9.61c3.35-1.37,6.37-1.23,7.86.38Z"/>
    <path class="st0" d="M752.57,177.47l-11.92-16.5c-.08-.12-.23-.17-.39-.13-.12.02-.21.08-.28.13-.26.19-.34.44-.21.64.87,1.21,1.18,1.89,1.09,2.45-.09.54-.55,1.06-1.72,1.9l-18.01,13.02c-1.18.85-1.82,1.14-2.36,1.05-.55-.09-1.1-.6-1.98-1.81-.08-.11-.2-.15-.34-.14-.22.02-.47.21-.56.41-.06.13-.05.26.03.36l12.43,17.2c.14.2.34.43.62.47.03,0,.07,0,.1,0,.24,0,.45-.13.63-.26,1.83-1.32,4.26-2.76,5.81-3.6.2-.15.16-.46.03-.7-.16-.29-.38-.32-.51-.27-4.23,1.37-7.39.21-10.27-3.77l-.93-1.28c-.4-.56-.54-1.06-.41-1.54.14-.49.55-.98,1.27-1.5l8.59-6.21,2.16,2.99c1.07,1.48,1.6,2.85,1.59,4.06-.02,1.15-.53,2.09-1.53,2.81-.14.1-.21.32.03.65s.46.33.61.23c.76-.55,1.42-1.08,2.06-1.58.61-.48,1.19-.94,1.82-1.4.46-.33.87-.62,1.33-.94.58-.4,1.24-.86,2.2-1.56.11-.08.16-.2.15-.34-.02-.2-.19-.44-.38-.52-.13-.06-.26-.05-.37.03-1.78,1.29-3.9.4-5.98-2.48l-2.19-3.03,7.74-5.59c1.3-.94,2.3-.73,3.34.71l.84,1.17c2.26,3.13,2.23,5.96-.12,8.94-.12.23.02.5.21.67.19.16.39.2.54.09l5.12-3.82c.37-.27.41-.59.13-.99Z"/>
  </g>
</svg>