<svg xmlns="http://www.w3.org/2000/svg" viewBox="0 0 1200 980" role="img" aria-labelledby="title desc">
  <title id="title">The Aesculapius Foundation logo</title>
  <desc id="desc">Full Aesculapius Foundation logo with circular serpent staff mark, Teach Heal Serve motto, laurel branches, paw print, and wordmark.</desc>
  <defs>
    <style>
      .navy{fill:#0d3f63}.navy-stroke{stroke:#0d3f63}.gold{fill:#b3842f}.gold-stroke{stroke:#b3842f}.green{fill:#668563}.green-stroke{stroke:#668563}.none{fill:none}.serif{font-family:Georgia,'Times New Roman',serif}.sans{font-family:Arial,Helvetica,sans-serif}
    </style>
    <path id="mottoArc" d="M418 252 A182 182 0 0 1 782 252"/>
  </defs>
  <rect width="1200" height="980" fill="none"/>
  <g transform="translate(600 320)">
    <circle r="244" class="none navy-stroke" stroke-width="7"/>
    <circle r="226" class="none gold-stroke" stroke-width="3" opacity=".95"/>
    <path d="M-197 212 A248 248 0 0 0 -88 288" class="none navy-stroke" stroke-width="6" stroke-linecap="round"/>
    <path d="M197 212 A248 248 0 0 1 88 288" class="none navy-stroke" stroke-width="6" stroke-linecap="round"/>
    <path d="M-196 192 A226 226 0 0 0 -72 278" class="none gold-stroke" stroke-width="3" stroke-linecap="round"/>
    <path d="M196 192 A226 226 0 0 1 72 278" class="none gold-stroke" stroke-width="3" stroke-linecap="round"/>
  </g>
  <text class="gold serif" font-size="32" font-weight="700" letter-spacing="6">
    <textPath href="#mottoArc" startOffset="50%" text-anchor="middle">TEACH • HEAL • SERVE</textPath>
  </text>
  <g class="green" opacity=".96">
    <g transform="translate(447 416) rotate(-24)">
      <path d="M0 0 C-28 -66 -20 -134 19 -198" class="none green-stroke" stroke-width="7" stroke-linecap="round"/>
      <ellipse cx="-6" cy="-30" rx="14" ry="36" transform="rotate(-44 -6 -30)"/>
      <ellipse cx="23" cy="-64" rx="13" ry="35" transform="rotate(32 23 -64)"/>
      <ellipse cx="-8" cy="-97" rx="14" ry="38" transform="rotate(-45 -8 -97)"/>
      <ellipse cx="29" cy="-129" rx="13" ry="36" transform="rotate(33 29 -129)"/>
      <ellipse cx="5" cy="-165" rx="13" ry="37" transform="rotate(-42 5 -165)"/>
    </g>
    <g transform="translate(753 416) scale(-1 1) rotate(-24)">
      <path d="M0 0 C-28 -66 -20 -134 19 -198" class="none green-stroke" stroke-width="7" stroke-linecap="round"/>
      <ellipse cx="-6" cy="-30" rx="14" ry="36" transform="rotate(-44 -6 -30)"/>
      <ellipse cx="23" cy="-64" rx="13" ry="35" transform="rotate(32 23 -64)"/>
      <ellipse cx="-8" cy="-97" rx="14" ry="38" transform="rotate(-45 -8 -97)"/>
      <ellipse cx="29" cy="-129" rx="13" ry="36" transform="rotate(33 29 -129)"/>
      <ellipse cx="5" cy="-165" rx="13" ry="37" transform="rotate(-42 5 -165)"/>
    </g>
  </g>
  <g class="navy">
    <circle cx="600" cy="142" r="29"/>
    <rect x="581" y="168" width="38" height="250" rx="17"/>
    <path d="M579 186 C497 195 478 281 545 313 C593 336 649 345 650 394 C651 435 609 454 553 446 L555 412 C597 419 616 410 617 392 C618 367 575 358 532 338 C449 300 471 191 579 158 Z"/>
    <path d="M620 187 C683 182 717 214 725 251 C703 250 680 244 662 232 C645 220 632 204 620 187 Z"/>
    <circle cx="681" cy="222" r="5" fill="#f4f0e8"/>
    <path d="M724 251 C745 254 756 264 765 274" class="none navy-stroke" stroke-width="5" stroke-linecap="round"/>
    <path d="M750 261 C764 255 776 254 786 259" class="none navy-stroke" stroke-width="4" stroke-linecap="round"/>
  </g>
  <g class="green">
    <ellipse cx="600" cy="474" rx="29" ry="22"/>
    <ellipse cx="566" cy="457" rx="13" ry="20" transform="rotate(-18 566 457)"/>
    <ellipse cx="634" cy="457" rx="13" ry="20" transform="rotate(18 634 457)"/>
    <ellipse cx="582" cy="433" rx="12" ry="19"/>
    <ellipse cx="618" cy="433" rx="12" ry="19"/>
  </g>
  <g class="gold-stroke" stroke-width="3" stroke-linecap="round">
    <line x1="115" y1="602" x2="430" y2="602"/>
    <line x1="770" y1="602" x2="1085" y2="602"/>
    <line x1="95" y1="788" x2="265" y2="788"/>
    <line x1="935" y1="788" x2="1105" y2="788"/>
  </g>
  <text x="600" y="635" class="navy serif" font-size="64" font-weight="700" letter-spacing="22" text-anchor="middle">THE</text>
  <text x="600" y="742" class="navy serif" font-size="118" font-weight="500" letter-spacing="12" text-anchor="middle">AESCULAPIUS</text>
  <text x="600" y="828" class="gold serif" font-size="62" font-weight="700" letter-spacing="24" text-anchor="middle">FOUNDATION</text>
</svg>
