<svg xmlns="http://www.w3.org/2000/svg" viewBox="0 0 720 720" role="img" aria-labelledby="title desc">
  <title id="title">The Aesculapius Foundation mark</title>
  <desc id="desc">Circular Aesculapius mark with serpent staff, laurel branches, paw print, and Teach Heal Serve motto.</desc>
  <defs>
    <style>
      .navy{fill:#0d3f63}.navy-stroke{stroke:#0d3f63}.gold{fill:#b3842f}.gold-stroke{stroke:#b3842f}.green{fill:#668563}.green-stroke{stroke:#668563}.none{fill:none}.serif{font-family:Georgia,'Times New Roman',serif}.sans{font-family:Arial,Helvetica,sans-serif}
    </style>
    <path id="mottoArc" d="M178 260 A210 210 0 0 1 542 260"/>
  </defs>
  <rect width="720" height="720" fill="none"/>
  <g transform="translate(360 360)">
    <circle r="262" class="none navy-stroke" stroke-width="7"/>
    <circle r="243" class="none gold-stroke" stroke-width="3" opacity=".95"/>
    <path d="M-213 228 A267 267 0 0 0 -96 310" class="none navy-stroke" stroke-width="6" stroke-linecap="round"/>
    <path d="M213 228 A267 267 0 0 1 96 310" class="none navy-stroke" stroke-width="6" stroke-linecap="round"/>
    <path d="M-212 207 A243 243 0 0 0 -78 299" class="none gold-stroke" stroke-width="3" stroke-linecap="round"/>
    <path d="M212 207 A243 243 0 0 1 78 299" class="none gold-stroke" stroke-width="3" stroke-linecap="round"/>
  </g>
  <text class="gold serif" font-size="36" font-weight="700" letter-spacing="6">
    <textPath href="#mottoArc" startOffset="50%" text-anchor="middle">TEACH • HEAL • SERVE</textPath>
  </text>
  <g class="green" opacity=".96">
    <g transform="translate(194 470) rotate(-24)">
      <path d="M0 0 C-28 -70 -20 -144 22 -214" class="none green-stroke" stroke-width="8" stroke-linecap="round"/>
      <ellipse cx="-7" cy="-32" rx="15" ry="40" transform="rotate(-44 -7 -32)"/>
      <ellipse cx="25" cy="-69" rx="14" ry="38" transform="rotate(32 25 -69)"/>
      <ellipse cx="-9" cy="-104" rx="15" ry="41" transform="rotate(-45 -9 -104)"/>
      <ellipse cx="32" cy="-139" rx="14" ry="39" transform="rotate(33 32 -139)"/>
      <ellipse cx="5" cy="-177" rx="14" ry="40" transform="rotate(-42 5 -177)"/>
    </g>
    <g transform="translate(526 470) scale(-1 1) rotate(-24)">
      <path d="M0 0 C-28 -70 -20 -144 22 -214" class="none green-stroke" stroke-width="8" stroke-linecap="round"/>
      <ellipse cx="-7" cy="-32" rx="15" ry="40" transform="rotate(-44 -7 -32)"/>
      <ellipse cx="25" cy="-69" rx="14" ry="38" transform="rotate(32 25 -69)"/>
      <ellipse cx="-9" cy="-104" rx="15" ry="41" transform="rotate(-45 -9 -104)"/>
      <ellipse cx="32" cy="-139" rx="14" ry="39" transform="rotate(33 32 -139)"/>
      <ellipse cx="5" cy="-177" rx="14" ry="40" transform="rotate(-42 5 -177)"/>
    </g>
  </g>
  <g class="navy">
    <circle cx="360" cy="168" r="31"/>
    <rect x="340" y="195" width="40" height="268" rx="18"/>
    <path d="M338 214 C250 224 230 316 302 351 C353 376 413 385 414 437 C415 481 370 501 310 493 L312 457 C357 464 377 455 378 435 C379 408 333 398 287 377 C198 336 222 220 338 184 Z"/>
    <path d="M382 215 C450 210 486 244 494 284 C470 283 445 276 426 263 C408 250 395 234 382 215 Z"/>
    <circle cx="447" cy="252" r="5" fill="#f4f0e8"/>
    <path d="M492 284 C515 287 526 298 536 309" class="none navy-stroke" stroke-width="5" stroke-linecap="round"/>
    <path d="M520 295 C535 288 548 287 559 293" class="none navy-stroke" stroke-width="4" stroke-linecap="round"/>
  </g>
  <g class="green">
    <ellipse cx="360" cy="532" rx="31" ry="24"/>
    <ellipse cx="323" cy="514" rx="14" ry="22" transform="rotate(-18 323 514)"/>
    <ellipse cx="397" cy="514" rx="14" ry="22" transform="rotate(18 397 514)"/>
    <ellipse cx="341" cy="488" rx="13" ry="20"/>
    <ellipse cx="379" cy="488" rx="13" ry="20"/>
  </g>
</svg>
